<svg width="348" height="89" viewBox="0 0 348 89" fill="none" xmlns="http://www.w3.org/2000/svg">
<path d="M39.0693 77.4429L68.7889 15.6738C69.9576 13.2449 67.5568 10.5408 64.9829 11.3411C57.4632 13.6795 45.3954 16.9286 36.3956 16.9286C27.3021 16.9286 14.7454 13.6115 7.01004 11.2684C4.43437 10.4882 2.06739 13.2034 3.25514 15.6184L33.6739 77.4663C34.7783 79.7117 37.9844 79.6978 39.0693 77.4429Z" fill="#ED4C4C"/>
<path d="M107.24 43.968H103.304L117.608 12H127.16L110.264 48H100.04L83.144 12H92.84L107.24 43.968ZM130.754 12H139.826V48H130.754V12ZM167.568 43.968H163.632L177.936 12H187.488L170.592 48H160.368L143.472 12H153.168L167.568 43.968ZM191.468 40.752V33.456H216.332V40.752H191.468ZM209.996 12L226.604 48H216.956L202.7 15.792H205.484L191.276 48H181.628L198.236 12H209.996Z" fill="black"/>
<path d="M175.712 65C177.184 65 178.448 65.256 179.504 65.768C180.576 66.264 181.392 66.968 181.952 67.88C182.528 68.792 182.816 69.856 182.816 71.072C182.816 72.288 182.528 73.352 181.952 74.264C181.392 75.176 180.576 75.888 179.504 76.4C178.448 76.896 177.184 77.144 175.712 77.144H167.84V73.472H175.472C176.336 73.472 177.016 73.264 177.512 72.848C178.008 72.416 178.256 71.824 178.256 71.072C178.256 70.32 178.008 69.736 177.512 69.32C177.016 68.888 176.336 68.672 175.472 68.672H168.248L170.288 66.56V83H165.752V65H175.712ZM185.065 65H189.601V83H185.065V65ZM199.369 65H203.881V83H199.369V65ZM187.585 71.888H201.289V75.872H187.585V71.888ZM210.64 79.376V75.728H223.072V79.376H210.64ZM219.904 65L228.208 83H223.384L216.256 66.896H217.648L210.544 83H205.72L214.024 65H219.904ZM233.185 72.92H239.929C240.777 72.92 241.449 72.728 241.945 72.344C242.441 71.944 242.689 71.392 242.689 70.688C242.689 69.984 242.441 69.44 241.945 69.056C241.449 68.656 240.777 68.456 239.929 68.456H232.537L234.577 66.224V83H230.041V65H240.529C241.873 65 243.049 65.24 244.057 65.72C245.065 66.2 245.849 66.864 246.409 67.712C246.969 68.56 247.249 69.552 247.249 70.688C247.249 71.808 246.969 72.792 246.409 73.64C245.849 74.488 245.065 75.152 244.057 75.632C243.049 76.096 241.873 76.328 240.529 76.328H233.185V72.92ZM236.089 74.576H241.201L247.825 83H242.569L236.089 74.576ZM275.997 65V83H271.677V66.584L272.733 66.656L265.413 83H260.781L253.461 66.704L254.517 66.608V83H250.197V65H257.181L264.021 80.744H262.197L269.013 65H275.997ZM282.734 79.376V75.728H295.166V79.376H282.734ZM291.998 65L300.302 83H295.478L288.35 66.896H289.742L282.638 83H277.814L286.118 65H291.998ZM320.832 75.56C320.656 77.112 320.12 78.48 319.224 79.664C318.328 80.832 317.144 81.744 315.672 82.4C314.2 83.056 312.52 83.384 310.632 83.384C308.568 83.384 306.752 82.992 305.184 82.208C303.632 81.424 302.424 80.328 301.56 78.92C300.696 77.512 300.264 75.872 300.264 74C300.264 72.128 300.696 70.488 301.56 69.08C302.424 67.672 303.632 66.576 305.184 65.792C306.752 65.008 308.568 64.616 310.632 64.616C312.52 64.616 314.2 64.944 315.672 65.6C317.144 66.256 318.328 67.168 319.224 68.336C320.12 69.504 320.656 70.872 320.832 72.44H316.272C316.112 71.624 315.784 70.928 315.288 70.352C314.808 69.776 314.168 69.336 313.368 69.032C312.584 68.712 311.672 68.552 310.632 68.552C309.432 68.552 308.4 68.776 307.536 69.224C306.672 69.656 306.008 70.28 305.544 71.096C305.08 71.912 304.848 72.88 304.848 74C304.848 75.12 305.08 76.088 305.544 76.904C306.008 77.72 306.672 78.352 307.536 78.8C308.4 79.232 309.432 79.448 310.632 79.448C311.672 79.448 312.584 79.296 313.368 78.992C314.168 78.688 314.808 78.248 315.288 77.672C315.784 77.096 316.112 76.392 316.272 75.56H320.832ZM328.453 83V74.288H332.989V83H328.453ZM320.005 65H325.021L331.741 73.544H329.653L336.373 65H341.389L332.173 76.712L329.245 76.76L320.005 65Z" fill="black"/>
<rect x="83" y="56" width="259" height="3" fill="#ED4C4C"/>
</svg>
